<?xml version="1.0" encoding="utf-8"?>
<!-- Generator: Adobe Illustrator 23.0.1, SVG Export Plug-In . SVG Version: 6.00 Build 0)  -->
<svg version="1.1" id="Layer_1" xmlns="http://www.w3.org/2000/svg" xmlns:xlink="http://www.w3.org/1999/xlink" x="0px" y="0px"
	 viewBox="0 0 669 241" style="enable-background:new 0 0 669 241;" xml:space="preserve">
<style type="text/css">
	.st0{stroke:#000000;stroke-width:3;stroke-miterlimit:10;}
	.st1{stroke:#000000;stroke-width:2;stroke-miterlimit:10;}
	.st2{fill:none;}
	.st3{font-family:'OpenSans-Light';}
	.st4{font-size:34px;}
	.st5{font-size:54px;}
</style>
<g>
	<path d="M187.3,136.13c1.7,5.87-2.67,9.41-3.3,9.87c-2.86,2.07-4.64,2.6-11,4c-3.22,0.71-8.05,1.33-11,1c-3.09-0.34-3,0-8.72-2.31
		c-3.96-1.6-6.49-4.93-8.55-8.09c-4.97-7.82-9.3-14.31-12.99-19.47c-0.12-0.14-4.07-6.83-11.86-20.08
		c7.15-0.98,13.41-2.31,18.77-3.98c5.36-1.67,9.95-3.72,13.77-6.14c3.82-2.42,6.91-5.21,9.29-8.37c2.38-3.16,4.14-6.72,5.29-10.67
		c1.15-3.95,1.77-8.3,1.85-13.04c0.08-4.74-0.26-9.92-1.03-15.53c-0.32-1.58-0.59-3.3-0.82-5.16c-0.23-1.87-0.47-3.36-0.73-4.49
		c-0.12-0.49-0.34-1.1-0.67-1.84c-0.33-0.74-0.88-1.44-1.65-2.09c-0.77-0.65-1.8-1.16-3.09-1.51c-1.29-0.35-2.9-0.4-4.84-0.13
		c-2.6,0.61-4.53,1.18-5.8,1.71c-1.27,0.53-2.11,1.23-2.52,2.09c-0.41,0.87-0.53,2.03-0.35,3.5c0.18,1.47,0.43,3.44,0.77,5.93
		c0.84,6.11,1.1,11.41,0.8,15.91c-0.31,4.49-1.15,8.37-2.52,11.62c-1.37,3.25-3.27,5.96-5.69,8.14c-2.42,2.18-5.3,3.99-8.64,5.44
		c-3.34,1.45-7.13,2.61-11.38,3.5c-4.24,0.89-8.91,1.68-14,2.37c-0.27-3.99-0.51-8.14-0.71-12.44c-0.21-3.65-0.44-7.73-0.7-12.25
		c-0.26-4.52-0.51-8.93-0.75-13.23c-0.09-1.5-0.18-3.06-0.27-4.68c-0.09-1.62-0.53-3.43-1.3-5.41c-0.11-0.8-0.35-1.61-0.71-2.43
		c-0.37-0.82-0.94-1.53-1.73-2.13c-0.79-0.61-1.83-1.05-3.1-1.33c-1.28-0.28-2.89-0.29-4.82-0.03c-3.33,0.46-7.19,1.18-11.58,2.16
		c-4.39,0.98-8.9,2.35-13.52,4.09c-4.62,1.75-9.16,3.96-13.62,6.65c-4.46,2.69-8.43,5.96-11.9,9.83c-3.47,3.87-6.22,8.41-8.26,13.62
		c-2.04,5.21-3,11.23-2.88,18.04c-0.04,0.06-0.06,0.13-0.04,0.23l0.09,0.67c0.07,0.5,0.28,1.1,0.63,1.81
		c0.35,0.71,0.98,1.35,1.89,1.9c0.91,0.56,2.21,0.98,3.89,1.25c1.68,0.28,3.91,0.22,6.7-0.16c2.13-0.29,3.78-0.76,4.93-1.4
		c1.15-0.64,2-1.31,2.53-2.02c0.54-0.71,0.85-1.37,0.94-1.99c0.09-0.62,0.12-1.05,0.09-1.3c-0.33-2.43-0.38-5.05-0.13-7.84
		c0.25-2.79,0.86-5.57,1.82-8.33c0.96-2.76,2.29-5.46,3.97-8.1c1.69-2.63,3.8-5.04,6.34-7.21c2.54-2.17,5.49-4.02,8.88-5.54
		c3.38-1.53,7.26-2.59,11.63-3.19L85,53.86c0.01,7.87,0.03,15.82,0.04,23.84c0.01,8.02-0.29,15.81-0.93,23.36
		c-0.63,7.55-1.62,14.67-2.95,21.35c-1.33,6.69-3.12,12.58-5.35,17.7c-2.23,5.11-4.97,9.28-8.22,12.51
		c-3.25,3.23-7.11,5.15-11.58,5.76c-1.64,0.22-3.37,0.22-5.2-0.01c-1.83-0.23-3.67-0.62-5.51-1.18c-0.16-0.03-0.38-0.02-0.68,0.02
		c-0.7,0.1-1.37,0.38-2.01,0.84c-0.65,0.47-1.23,1-1.75,1.61s-0.97,1.21-1.34,1.82c-0.37,0.61-0.63,1.1-0.78,1.47
		c-0.49,1.23-0.98,2.45-1.47,3.66c-0.49,1.21-0.65,2.48-0.46,3.82c0.19,1.39,1.2,2.44,3.01,3.15c1.82,0.71,3.97,1.2,6.46,1.47
		c2.49,0.27,5.07,0.34,7.74,0.23c2.67-0.11,4.97-0.3,6.9-0.57c5.61-0.77,10.79-2.58,15.54-5.43c4.74-2.85,8.97-6.88,12.69-12.1
		c3.71-5.21,6.84-11.68,9.37-19.39c2.54-7.71,4.42-16.81,5.67-27.3c2.41,2.1,4.64,4.49,6.68,7.17c2.04,2.68,3.98,5.49,5.82,8.42
		s3.79,6.02,5.82,9.26c2.04,3.24,3.98,6.25,5.83,9.03c1.85,2.78,4.43,6.29,7.74,10.51c3.31,4.23,6.18,7.16,8.61,8.8
		c2.43,1.64,5.09,2.83,8,3.57s6.15,0.86,9.73,0.37c3.23-0.44,6.35-1.2,9.37-2.27c3.01-1.07,5.85-2.29,8.49-3.67
		c2.64-1.38,5.51-3.16,7.6-4.68c4.14-3,3.58-3.8,5.14-5c1.55-1.2,2.79-0.65,3.65-1.41c0.86-0.75,1.29-1.1,1.3-1.05L187.3,136.13z"/>
	<path d="M306.29,162.55c-2.7,0-5.21-1.17-7.53-3.52c-2.32-2.34-4.34-5.49-6.06-9.44c-1.72-3.95-3.07-8.53-4.04-13.73
		c-0.97-5.21-1.46-10.67-1.45-16.39c0-4.92,0.73-11.49,2.18-19.7c1.45-8.21,2.17-12.32,2.17-12.32c0,0,1.1-4.1,3.29-12.3
		c2.19-8.2,4.39-14.78,6.6-19.74c2.2-4.95,4.6-9.58,7.18-13.89c2.58-4.3,5.29-8.06,8.13-11.25c2.84-3.2,5.8-5.71,8.89-7.54
		c3.09-1.83,6.23-2.74,9.42-2.74c2.32,0,4.24,0.44,5.75,1.33c1.51,0.89,2.7,2.06,3.56,3.51c0.86,1.45,1.47,3.1,1.82,4.94
		c0.35,1.84,0.52,3.71,0.52,5.62c0,4.74-0.56,9.57-1.69,14.48c-1.12,4.91-2.64,9.85-4.54,14.82c-1.91,4.96-4.11,9.94-6.61,14.93
		c-2.5,4.99-5.11,9.94-7.82,14.85c-2.71,4.91-5.44,9.75-8.18,14.52c-2.74,4.76-5.27,9.42-7.58,13.97c-0.25,0.5-0.52,1.16-0.79,1.97
		c-0.28,0.81-0.54,1.68-0.79,2.62c-0.25,0.94-0.5,1.93-0.76,2.99c-0.25,1.06-0.45,2.1-0.61,3.11l0,1.06c0,1.31,0.14,2.59,0.41,3.83
		c0.28,1.24,0.61,2.35,1.02,3.34c0.4,0.99,0.83,1.77,1.28,2.35c0.45,0.58,0.88,0.87,1.28,0.87c0.98,0,2.09-0.2,3.35-0.61
		c1.26-0.4,2.59-0.95,4.01-1.63c1.41-0.68,2.86-1.46,4.35-2.35c1.49-0.88,2.93-1.78,4.31-2.69c3.23-2.12,6.62-4.57,10.17-7.35
		l6.63,15.85c-4.6,3.05-9.14,5.76-13.63,8.14c-1.96,1-3.99,1.99-6.08,2.97c-2.09,0.98-4.2,1.85-6.31,2.61
		c-2.12,0.76-4.18,1.37-6.19,1.82C309.93,162.33,308.05,162.55,306.29,162.55z M306.39,102.95c2.26-4.04,4.67-8.59,7.21-13.65
		c2.54-5.05,4.95-10.26,7.21-15.62c2.26-5.36,4.23-10.7,5.89-16.04c1.66-5.33,2.72-10.3,3.17-14.9c0-1.47-0.04-2.72-0.11-3.75
		c-0.07-1.04-0.3-1.55-0.68-1.55c-1.38,0-2.86,0.95-4.46,2.85c-1.59,1.9-3.18,4.48-4.78,7.73c-1.59,3.25-3.5,8.53-5.71,15.86
		c-2.21,7.32-3.32,10.98-3.32,10.98c0,0-0.68,3.4-2.03,10.19C307.45,91.85,306.65,97.81,306.39,102.95z"/>
	<path d="M348.53,162.01c-2.69-0.12-5.15-1.41-7.36-3.86c-2.21-2.45-4.09-5.68-5.63-9.7c-1.54-4.02-2.68-8.66-3.41-13.9
		c-0.74-5.24-0.97-10.72-0.71-16.44c0.22-4.91,1.25-11.44,3.07-19.58c1.82-8.14,2.73-12.21,2.73-12.21c0,0,1.28-4.05,3.84-12.14
		c2.56-8.1,5.06-14.57,7.48-19.42c2.43-4.85,5.03-9.37,7.8-13.55c2.78-4.18,5.65-7.81,8.63-10.87c2.98-3.07,6.05-5.44,9.22-7.13
		c3.17-1.69,6.35-2.46,9.53-2.31c2.32,0.11,4.21,0.64,5.68,1.59c1.47,0.95,2.6,2.18,3.4,3.67c0.8,1.49,1.33,3.16,1.59,5.02
		c0.27,1.85,0.36,3.73,0.27,5.64c-0.22,4.73-1,9.53-2.34,14.39c-1.34,4.86-3.08,9.72-5.21,14.6c-2.13,4.87-4.55,9.75-7.28,14.62
		c-2.73,4.87-5.56,9.7-8.49,14.49c-2.93,4.79-5.87,9.5-8.82,14.13c-2.95,4.63-5.69,9.17-8.2,13.61c-0.27,0.49-0.57,1.14-0.88,1.93
		c-0.31,0.8-0.62,1.65-0.91,2.58c-0.29,0.92-0.59,1.91-0.89,2.96c-0.3,1.05-0.55,2.08-0.75,3.08l-0.05,1.06
		c-0.06,1.31,0.02,2.59,0.24,3.84c0.22,1.25,0.51,2.38,0.87,3.38c0.36,1,0.75,1.81,1.17,2.41c0.43,0.6,0.84,0.91,1.24,0.93
		c0.97,0.04,2.1-0.11,3.37-0.45c1.27-0.35,2.63-0.83,4.07-1.45c1.44-0.62,2.92-1.33,4.45-2.15c1.53-0.82,3.01-1.65,4.43-2.49
		c3.33-1.97,6.82-4.27,10.49-6.88l5.91,16.14c-4.73,2.84-9.39,5.34-13.99,7.52c-2.01,0.91-4.08,1.81-6.21,2.69
		c-2.13,0.88-4.27,1.65-6.42,2.32c-2.15,0.67-4.24,1.18-6.27,1.54C352.18,161.96,350.29,162.09,348.53,162.01z M351.33,102.47
		c2.44-3.94,5.05-8.37,7.82-13.31c2.77-4.93,5.4-10.03,7.91-15.28c2.5-5.25,4.71-10.5,6.61-15.75c1.9-5.25,3.18-10.17,3.85-14.74
		c0.07-1.46,0.09-2.72,0.06-3.75c-0.02-1.04-0.23-1.57-0.61-1.58c-1.38-0.06-2.9,0.82-4.58,2.65c-1.68,1.83-3.38,4.33-5.12,7.51
		c-1.74,3.17-3.88,8.37-6.42,15.58c-2.54,7.21-3.81,10.82-3.81,10.82c0,0-0.83,3.36-2.49,10.09
		C352.89,91.43,351.82,97.35,351.33,102.47z"/>
	<path d="M398.73,162.59c-4.68,0-8.78-0.87-12.29-2.61c-3.51-1.74-6.43-4.07-8.77-7.01c-2.34-2.94-4.09-6.33-5.26-10.18
		c-1.17-3.85-1.75-7.9-1.75-12.13c0-2.77,0.53-6.07,1.57-9.91c1.05-3.83,2.13-7.24,3.26-10.2c1.12-2.97,2.53-5.8,4.23-8.5
		s3.68-5.07,5.95-7.12c2.27-2.05,4.81-3.68,7.63-4.9s5.95-1.82,9.39-1.82c2.81,0,5.42,0.45,7.83,1.36c2.41,0.9,4.5,2.17,6.28,3.8
		c1.78,1.63,3.17,3.59,4.18,5.9c1,2.3,1.5,4.88,1.5,7.73c0,3.04-1.02,6.45-3.06,10.22c-2.04,3.77-4.41,7.01-7.13,9.7
		c-2.71,2.7-5.94,5.1-9.69,7.2c-3.74,2.11-7.8,3.75-12.17,4.92c0.75,1.32,1.5,2.43,2.23,3.31c0.73,0.88,1.47,1.57,2.23,2.06
		c0.75,0.49,1.55,0.83,2.38,1.03c0.83,0.2,1.72,0.29,2.68,0.3c3.01,0,6.18-0.58,9.51-1.76c3.33-1.17,6.58-2.64,9.74-4.41
		c3.16-1.76,6.14-3.69,8.95-5.77c2.81-2.08,5.19-4.05,7.15-5.92l9.7,9.86c-4.41,4.7-9.1,8.85-14.07,12.46
		c-2.16,1.55-4.48,3.07-6.96,4.57s-5.09,2.82-7.82,3.98c-2.73,1.16-5.57,2.09-8.5,2.78C404.72,162.24,401.74,162.59,398.73,162.59z
		 M388.71,126.77c1.81,0,3.79-0.45,5.93-1.36c2.14-0.91,4.13-2.07,5.96-3.49c1.84-1.42,3.64-3.33,5.4-5.73
		c1.76-2.4,2.64-4.39,2.64-5.95c0-2.21-0.41-4.02-1.24-5.44c-0.83-1.42-1.85-2.13-3.06-2.13c-2.16,0-4.01,0.39-5.55,1.17
		c-1.53,0.78-2.82,1.8-3.85,3.05c-1.03,1.25-1.86,2.67-2.49,4.26c-0.63,1.59-1.36,3.57-2.19,5.92c-0.83,2.35-1.3,4.29-1.4,5.81
		C388.76,124.39,388.71,125.69,388.71,126.77z"/>
	<path d="M430.21,146.89c0-3.31,0.2-7.13,0.61-11.47c0.4-4.34,0.91-9.1,1.51-14.29s1.28-9.86,2.04-14.02
		c0.75-4.16,1.48-7.72,2.18-10.68c0.55-2.3,1.62-4.24,3.2-5.79c1.58-1.55,3.72-2.33,6.43-2.33c2.71,0,4.59,0.83,5.64,2.48
		s1.58,3.86,1.58,6.62c0,0.75-0.08,1.77-0.23,3.05s-0.34,2.68-0.57,4.21c-0.23,1.53-0.47,3.11-0.72,4.74
		c-0.25,1.63-0.49,3.48-0.72,5.56c-0.23,2.08-0.42,3.64-0.57,4.66c-0.15,1.03-0.23,1.72-0.23,2.07l1.5,0
		c0.3-0.55,0.78-1.44,1.43-2.67c0.65-1.23,1.4-2.99,2.26-5.3c0.85-2.3,1.77-4.35,2.75-6.13c0.98-1.78,1.89-3.48,2.75-5.11
		c0.85-1.63,1.63-3.07,2.33-4.32c0.7-1.25,1.23-2.18,1.58-2.78c1.61-2.71,3.43-4.56,5.49-5.56c2.06-1,4.34-1.5,6.84-1.5
		c2.51,0,4.5,1.05,5.98,3.16c1.48,2.11,2.22,5.01,2.21,8.72c0,0.55-0.11,1.48-0.34,2.78c-0.23,1.3-0.52,2.86-0.87,4.66
		c-0.35,1.8-0.74,4.14-1.17,6.99c-0.43,2.86-0.82,5.41-1.17,7.67c-0.35,2.26-0.64,4.49-0.87,6.69c-0.23,2.21-0.34,4.24-0.34,6.09
		c0,3.11,0.39,5.67,1.16,7.67c0.78,2.01,1.99,3.01,3.65,3.01c0.6,0,1.45-0.22,2.56-0.68c1.65-0.6,2.71-1.13,3.16-1.58
		c2.21-1.7,3.36-2.53,3.46-2.48c0.15,0.05,1.83-0.95,5.04-3.01c4.01-2.56,8.8-5.69,14.37-9.39l-0.08,16.84l-3.76,2.86
		c-0.3,0.25-2.66,1.55-7.07,3.91c-6.37,3.41-10.35,5.46-11.96,6.16c-3.91,1.75-6.34,2.75-7.3,3c-2.51,0.8-5.14,1.2-7.9,1.2
		c-2.76,0-5.07-1.99-6.95-5.98c-1.88-3.99-2.82-9.81-2.81-17.48c0-3.01,0.2-6.25,0.61-9.74c0.4-3.48,0.91-7.23,1.51-11.24l-1.2,0
		l-19.72,39.09c-1.05,2.11-2.18,3.51-3.39,4.21c-1.25,0.75-2.71,1.13-4.36,1.13c-2.06,0-3.71-0.44-4.96-1.32
		c-1.25-0.88-2.22-2.06-2.89-3.54c-0.68-1.48-1.13-3.16-1.35-5.04S430.21,148.89,430.21,146.89z"/>
	<path d="M588.36,147.02c-3.56,2.93-7.07,5.53-10.53,7.82c-1.45,0.96-2.98,1.9-4.59,2.83c-1.6,0.93-3.18,1.76-4.74,2.47
		c-1.55,0.72-3.06,1.3-4.53,1.75c-1.47,0.45-2.81,0.68-4.03,0.68c-0.72,0-1.78-0.16-3.19-0.48c-1.41-0.32-2.95-0.97-4.62-1.96
		c-1.67-0.99-3.33-2.41-5-4.27c-1.67-1.86-3.12-4.34-4.35-7.43c-1.86,1.92-3.84,3.74-5.92,5.47c-2.09,1.73-4.25,3.23-6.49,4.51
		c-2.24,1.28-4.5,2.3-6.79,3.07c-2.29,0.77-4.59,1.16-6.9,1.15c-3.26,0-6.08-0.68-8.46-2.04c-2.38-1.36-4.36-3.16-5.94-5.41
		c-1.58-2.25-2.76-4.81-3.53-7.66c-0.78-2.86-1.16-5.81-1.16-8.86c0-3.26,0.42-6.55,1.24-9.88c0.83-3.33,2.03-6.56,3.61-9.69
		c1.58-3.13,3.34-6.4,5.27-9.8c1.93-3.41,4.49-6.51,7.67-9.31c3.18-2.8,6.46-4.91,9.82-6.33c3.36-1.42,6.94-2.31,10.75-2.67
		c0.15-6.51,0.85-12.25,2.08-17.21c1.23-4.96,2.56-10.3,3.99-16.02c1.42-5.72,3.26-10.98,5.5-15.79s4.71-8.97,7.38-12.48
		c2.67-3.51,5.52-6.25,8.55-8.23c3.03-1.98,6.15-2.97,9.38-2.97c2.36,0,4.36,0.62,6.01,1.85c1.65,1.23,2.99,2.86,4.02,4.9
		c1.03,2.04,1.77,4.4,2.22,7.08c0.45,2.69,0.67,5.46,0.67,8.32c0,1.79-0.02,3.62-0.05,5.51c-0.15,7.2-1.26,13.89-3.34,20.09
		c-2.08,6.2-4.14,12.33-6.17,18.38c-2.03,6.06-4.48,12.05-7.35,17.98c-4.38,9.07-7.17,15.23-8.37,18.47
		c-0.26,0.71-0.52,1.57-0.78,2.58c-0.26,1.01-0.51,2.12-0.74,3.31c-0.24,1.19-0.43,2.41-0.59,3.65c-0.16,1.24-0.23,2.45-0.24,3.61
		c0,1.47,0.08,2.86,0.25,4.18c0.17,1.32,0.45,2.5,0.84,3.54c0.39,1.04,0.91,1.86,1.57,2.47c0.66,0.61,1.48,0.91,2.45,0.91
		c0.95,0,1.99-0.19,3.12-0.57c1.13-0.38,2.32-0.9,3.57-1.55c1.25-0.66,2.52-1.4,3.8-2.23c1.28-0.83,2.52-1.68,3.72-2.54
		c2.76-2.02,5.64-4.32,8.65-6.9L588.36,147.02z M536.25,102.59c-3.31,1.62-6.26,3.75-8.84,6.4c-2.58,2.65-4.74,6.15-6.47,10.5
		s-3.05,8.09-3.95,11.22s-1.36,5.96-1.36,8.49c0,0.78,0.11,1.57,0.34,2.35s0.64,1.49,1.24,2.12c0.6,0.63,1.45,1.14,2.56,1.53
		c1.1,0.39,2.53,0.59,4.29,0.59c0.9,0,1.79-0.2,2.67-0.6c0.88-0.4,1.72-0.92,2.52-1.56c0.8-0.64,1.57-1.38,2.3-2.2
		c0.73-0.82,1.39-1.68,2-2.57c1.41-2.04,2.69-4.35,3.84-6.93c-0.15-0.71-0.28-1.83-0.38-3.37c-0.1-1.54-0.18-3.89-0.23-7.05
		c-0.05-3.16-0.1-5.75-0.15-7.77c-0.05-2.02-0.09-3.87-0.11-5.54c-0.03-1.67-0.06-3.03-0.11-4.09
		C536.35,103.05,536.3,102.54,536.25,102.59z M571.75,51.3c0.31-3.51,0.47-6.29,0.47-8.35c0-2.71-0.24-4.59-0.72-5.64
		c-0.48-1.05-1.18-1.58-2.1-1.58c-1.63,0-3.11,1.01-4.44,3.04c-1.33,2.03-2.39,4.65-3.2,7.85c-0.81,3.21-1.68,6.69-2.63,10.45
		c-0.95,3.76-1.64,7.45-2.08,11.06c-0.44,3.61-0.79,6.86-1.05,9.75c-0.26,2.9-0.45,4.95-0.56,6.17c-0.22,2.49-0.4,4.89-0.54,7.2
		c-0.14,2.31-0.23,4.42-0.29,6.33c-0.06,1.91-0.08,3.57-0.08,4.99c0,1.42,0,2.52,0,3.28l0,0.76c2.79-6.68,5.36-13.33,7.71-19.96
		c0.98-2.82,1.95-5.77,2.9-8.84c0.96-3.07,1.91-6.11,2.85-9.13c0.94-3.02,1.74-6.01,2.39-8.97
		C571.03,56.77,571.49,53.96,571.75,51.3z"/>
	<path d="M584.13,146.95c0-2.21,0.13-4.77,0.38-7.71c0.25-2.93,0.59-6.03,1.02-9.29c0.43-3.26,0.93-6.58,1.51-9.96
		c0.58-3.38,1.32-6.99,2.22-10.83c0.9-3.83,1.68-7.03,2.33-9.59c0.65-2.56,1.31-4.66,1.96-6.32c0.4-1.1,0.8-1.98,1.2-2.63
		c0.4-0.65,0.87-1.17,1.39-1.54c0.53-0.38,1.18-0.63,1.96-0.75c0.78-0.12,1.74-0.19,2.9-0.19c1.3,0,2.32,0.06,3.05,0.19
		c0.73,0.13,1.27,0.43,1.62,0.9c0.35,0.48,0.56,1.17,0.64,2.07s0.11,2.13,0.11,3.68c0,1.85-0.13,4.49-0.38,7.9
		c-0.25,3.41-0.33,6.39-0.23,8.95l0.83,0c1-2,2.26-4.64,3.76-7.89c1.51-3.26,3.09-5.96,4.74-8.12c1.66-2.15,3.54-3.97,5.64-5.45
		c2.19-1.54,4.74-2.28,7.64-2.21c0.36,0.01,0.72,0.04,1.07,0.11c1.49,0.29,2.73,0.88,3.73,1.77c0.68,0.6,1.21,1.34,1.62,2.22
		c0.4,0.88,0.6,1.87,0.6,2.97c0,0.85-0.13,2.04-0.38,3.57c-0.25,1.53-0.65,3.52-1.21,5.98c-0.55,2.46-0.95,4.47-1.21,6.05
		c-0.25,1.58-0.38,2.89-0.38,3.95c0,1.8,0.17,3.31,0.52,4.51c0.35,1.2,0.81,2.17,1.39,2.9c0.58,0.73,1.23,1.24,1.95,1.54
		c0.73,0.3,1.49,0.45,2.29,0.45c2.26,0,4.59-0.5,6.99-1.5c2.41-1,4.61-2.13,6.62-3.38c1.75-1.08,3.47-2.27,5.17-3.57
		c0.57-0.44,1.37,0.11,1.17,0.8c-1.62,5.61-6.69,20.26-16.16,23.55c-2.01,0.7-4.1,0.94-6.2,0.94c-3.76,0-6.79-0.77-9.1-2.3
		c-2.31-1.53-4.13-3.54-5.49-6.02c-1.35-2.48-2.35-5.26-3-8.35c-0.65-3.08-1.18-6.2-1.58-9.36l-1.2,0l-13.48,37.52
		c-0.7,1.95-1.37,3.57-1.99,4.85c-0.63,1.28-1.27,2.32-1.92,3.12c-0.65,0.8-1.35,1.37-2.11,1.69c-0.75,0.33-1.58,0.49-2.48,0.49
		c-2.06,0-3.71-0.44-4.96-1.32c-1.25-0.88-2.22-2.06-2.89-3.54c-0.68-1.48-1.13-3.16-1.35-5.04
		C584.25,150.9,584.13,148.95,584.13,146.95z"/>
	<path class="st0" d="M221.45,119.42c0.73,2.05,2.98,3.11,5.03,2.38l0.17-0.07l19.43,20.37c0.55,0.57,1.45,0.59,2.03,0.05
		c0.57-0.55,0.59-1.45,0.05-2.03l-19.43-20.37c0.42-0.9,0.5-1.97,0.14-2.98c-0.16-0.45-0.39-0.85-0.68-1.2l0.89-14.93
		c0.09-1.58-1.11-2.94-2.69-3.03c-1.58-0.09-2.94,1.11-3.03,2.69l-0.89,14.93C221.35,116.28,220.91,117.91,221.45,119.42z"/>
	<g>
		<path class="st1" d="M274.98,130.3l0.37-1.34c3.18-11.52,1.92-23.71-3.42-34.38c-5.83-11.64-15.95-20.41-28.25-24.64
			c-12.32-4.23-25.83-3.51-37.59,2.12c-11.67,5.6-20.55,15.49-24.76,27.75c-4.22,12.29-3.27,25.6,2.55,37.21
			c9.6,19.19,30.72,30.03,51.91,26.81c3.69-0.56,7.3-1.54,10.75-2.91l-0.14-9.97c-3.67,1.87-7.6,3.18-11.97,3.85
			c-17.31,2.63-34.54-6.22-42.38-21.89c-4.69-9.38-5.49-20.11-2.1-30.05c3.4-9.97,10.63-18.01,20.12-22.56
			c9.54-4.58,20.51-5.17,30.52-1.77c10.09,3.44,18.42,10.62,23.19,20.17c4.16,8.32,5.29,17.8,3.04,26.85l-0.4,1.63l-9.74-3.55
			l6.47,25.16l21.15-15.08L274.98,130.3z"/>
	</g>
</g>
<rect x="32.45" y="174.84" class="st2" width="637.55" height="62.85"/>
<text transform="matrix(1 0 0 1 32.4468 215.8799)"><tspan x="0" y="0" class="st3 st4">THE UNIVERSAL TEAM SCHEDULING APP</tspan><tspan x="621.79" y="0" class="st3 st5"> </tspan></text>
</svg>
